<!-- Suddeco brand logo — vectorized from the 1995x459 master PNG (potrace, fidelity-validated: shapeIoU 99.1%, MAE<0.9). Brand orange #FFA500. EXACT reproduction; do not redesign. -->
<svg xmlns="http://www.w3.org/2000/svg" viewBox="0 0 1995 459" role="img" aria-label="Suddeco">
  <title>Suddeco — wordmark #131313 + orange icon — for LIGHT backgrounds</title>
  <g transform="translate(0.000000,459.000000) scale(1.000000,-1.000000)" stroke="none" fill-rule="evenodd">
    <path fill="#131313" d="M171 379 c-4 -1 -113 -61 -117 -64 -10 -7 -16 -18 -17 -31 -1 -18 8
-35 25 -42 3 -2 40 -16 82 -32 49 -19 76 -30 77 -31 2 -2 2 -4 2 -16 0 -13 0
-15 -2 -16 -2 -2 -10 -2 -100 -2 -94 0 -98 0 -99 -2 -2 -1 -2 -5 -2 -27 l1
-25 2 -2 c3 -1 192 -2 205 0 28 3 45 17 52 42 2 8 2 51 0 60 -5 20 -20 34 -47
46 -4 2 -40 16 -79 30 -39 15 -71 28 -73 28 -4 2 -4 4 -4 15 0 8 0 10 2 11 1
2 11 2 96 2 l94 0 1 2 c2 2 2 6 2 26 l0 24 -2 3 -3 2 -47 0 c-26 0 -48 0 -49
-1z M737 379 c-4 -1 -118 -63 -123 -66 -10 -8 -18 -19 -23 -33 l-2 -6 -1 -91
c0 -78 0 -91 1 -93 2 -1 3 -1 86 -1 84 0 85 0 93 2 34 8 59 33 67 67 2 8 3 9
3 76 0 67 -1 68 -3 77 -8 33 -33 57 -67 66 -7 2 -28 3 -31 2z m20 -58 c11 -4
16 -9 20 -21 1 -5 2 -10 2 -66 0 -60 -1 -61 -3 -67 -1 -4 -3 -9 -5 -11 -4 -5
-12 -9 -20 -10 -4 -1 -28 -1 -54 -1 -42 0 -47 0 -48 2 -2 1 -2 5 -2 87 0 79 0
85 2 87 1 2 3 2 52 2 44 -1 52 -1 56 -2z M1010 379 c-4 -1 -117 -63 -121 -66
-6 -4 -14 -12 -17 -18 -2 -2 -5 -8 -6 -12 l-3 -8 -1 -92 0 -91 2 -2 c2 -2 7
-2 81 -2 49 0 82 0 87 1 10 1 24 6 32 10 15 8 30 24 38 40 2 4 5 12 7 18 l2
10 0 67 0 68 -2 9 c-9 31 -30 54 -59 64 -13 4 -35 6 -40 4z m14 -57 c16 -2 24
-9 27 -24 2 -8 1 -123 0 -130 -3 -11 -9 -17 -20 -21 -4 -1 -9 -1 -55 -2 -36 0
-51 0 -53 1 -2 1 -2 1 -2 88 0 82 0 87 2 88 2 1 90 1 101 0z M1295 379 c-3 -1
-124 -66 -131 -71 -9 -6 -16 -14 -21 -23 -8 -16 -7 -10 -8 -106 l0 -86 2 -2 3
-3 120 0 c94 0 120 0 122 1 l3 2 0 25 c0 22 0 26 -2 27 -1 2 -5 2 -93 2 -78 0
-92 0 -94 1 -1 2 -2 3 -2 30 0 28 0 29 2 31 2 2 3 2 83 2 67 0 81 0 82 1 1 1
1 9 1 28 l0 25 -3 2 c-2 1 -20 1 -83 1 l-80 0 -1 3 c-1 1 -1 12 -1 27 0 23 1
24 2 26 2 1 16 1 91 1 85 0 89 0 90 2 2 1 2 5 2 26 l0 25 -3 2 c-2 2 -3 2 -41
2 -21 0 -39 0 -40 -1z M1561 379 c-6 -2 -127 -68 -131 -72 -11 -8 -19 -21 -23
-35 -2 -8 -2 -12 -2 -95 0 -77 0 -86 2 -87 1 -2 13 -2 112 -2 75 0 112 0 113
1 2 1 2 2 2 27 0 19 0 27 -1 28 -1 1 -21 1 -84 1 -78 0 -82 0 -83 2 -2 2 -2 9
-2 87 l0 86 2 1 c2 2 12 2 84 2 62 0 82 0 83 1 1 1 1 8 1 27 0 22 0 26 -2 27
-1 2 -6 2 -35 2 -19 0 -35 0 -36 -1z M529 363 c-14 -7 -26 -14 -27 -15 -1 -1
-1 -23 -1 -102 0 -90 0 -100 -2 -100 -2 -1 -126 -1 -128 0 -2 1 -2 3 -2 113 0
61 0 113 -1 113 0 1 -1 2 -2 2 -3 0 -52 -26 -54 -29 -2 -2 -2 -8 -2 -104 1
-114 0 -106 8 -122 7 -14 20 -24 38 -29 6 -1 13 -1 80 -1 72 0 73 0 81 2 12 3
18 7 26 14 7 8 12 16 15 27 1 6 1 16 2 124 0 88 0 119 -1 120 -1 0 -2 1 -3 1
-1 0 -13 -6 -27 -14z"/>
    <path fill="#FFA500" d="M1886 425 c-1 -2 -1 -49 0 -51 1 -2 49 -28 51 -28 2 0 3 1 3 27 l0
27 -25 14 c-13 7 -25 13 -27 13 -1 0 -2 -1 -2 -2z M1802 396 c-2 -1 -6 -2 -8
-3 -7 -3 -104 -58 -108 -62 -10 -7 -17 -20 -20 -32 -1 -7 -1 -16 -1 -68 l1
-60 2 -7 c6 -16 15 -25 30 -34 5 -2 9 -5 9 -5 0 -1 -22 -21 -48 -45 -26 -24
-48 -45 -48 -45 0 -4 2 -4 41 -4 l38 0 23 21 c12 12 28 26 35 33 l12 11 15 -8
c16 -9 21 -11 32 -12 8 -1 20 0 28 3 2 1 29 14 59 28 l55 26 7 8 c5 5 9 9 11
14 6 13 6 14 6 77 0 37 0 60 -1 64 -1 7 -8 20 -13 26 -2 3 -7 7 -10 9 -3 2
-30 17 -59 33 -37 21 -55 30 -59 31 -8 2 -23 2 -29 1z m33 -84 c8 -3 125 -68
129 -72 3 -4 3 -11 -1 -15 -3 -3 -119 -68 -127 -71 -13 -5 -28 -5 -41 0 -9 3
-123 72 -125 76 -1 3 -1 6 0 9 1 2 16 11 60 37 57 32 64 36 73 38 7 2 24 1 32
-2z M1780 270 c-2 -1 -3 -4 -1 -4 0 0 8 -8 18 -17 l17 -17 -16 -15 c-9 -8 -18
-16 -20 -18 l-4 -4 3 -1 3 -2 15 14 c8 7 17 15 19 18 l5 4 19 -18 18 -18 3 2
c2 0 3 1 3 2 0 0 -9 9 -19 19 -15 14 -19 18 -18 19 1 0 9 8 18 16 9 8 17 16
18 17 1 1 1 1 -2 2 l-3 2 -18 -17 c-10 -9 -19 -17 -19 -17 0 0 -8 8 -18 17
-10 9 -18 17 -18 17 0 0 -2 -1 -3 -1z"/>
  </g>
</svg>
